<?xml version="1.0" standalone="no"?>
<!DOCTYPE svg PUBLIC "-//W3C//DTD SVG 20010904//EN"
 "http://www.w3.org/TR/2001/REC-SVG-20010904/DTD/svg10.dtd">
<svg version="1.0" xmlns="http://www.w3.org/2000/svg"
 width="512.000000pt" height="512.000000pt" viewBox="0 0 512.000000 512.000000"
 preserveAspectRatio="xMidYMid meet">

<g transform="translate(0.000000,512.000000) scale(0.100000,-0.100000)"
fill="#000000" stroke="none">
<path d="M160 2545 l0 -2415 2385 0 2385 0 0 2415 0 2415 -2385 0 -2385 0 0
-2415z m4710 0 l0 -2355 -2325 0 -2325 0 0 2355 0 2355 2325 0 2325 0 0 -2355z"/>
<path d="M430 3646 l0 -856 203 0 c112 0 230 5 262 11 147 27 229 111 255 260
7 43 10 247 8 629 -3 560 -3 566 -26 621 -30 76 -80 131 -144 160 -51 23 -64
24 -305 27 l-253 3 0 -855z m419 565 c11 -11 23 -35 26 -53 3 -18 5 -261 3
-539 -3 -590 4 -549 -105 -549 l-63 0 0 580 0 580 60 0 c46 0 65 -5 79 -19z"/>
<path d="M1360 3545 l0 -755 330 0 330 0 0 120 0 120 -190 0 -190 0 0 195 0
195 163 2 162 3 3 123 3 122 -166 0 -165 0 0 195 0 195 190 0 190 0 0 120 0
120 -330 0 -330 0 0 -755z"/>
<path d="M2126 4283 c2 -10 22 -142 44 -293 23 -151 78 -482 123 -735 l82
-460 182 -3 181 -2 11 52 c54 271 241 1396 241 1451 0 4 -63 7 -140 7 -137 0
-140 0 -145 -22 -2 -13 -36 -272 -75 -577 -38 -305 -71 -555 -73 -557 -1 -2
-29 205 -61 459 -32 254 -65 515 -73 580 l-16 117 -143 0 c-130 0 -142 -1
-138 -17z"/>
<path d="M3340 4011 c-19 -10 -45 -33 -57 -51 -23 -33 -23 -35 -23 -428 0
-372 1 -396 19 -426 11 -17 35 -40 53 -51 32 -19 53 -20 548 -23 283 -1 544 1
580 4 59 6 69 11 106 48 l42 41 7 118 c4 65 4 245 0 400 -6 272 -7 283 -30
318 -46 71 -28 69 -652 69 -524 0 -560 -1 -593 -19z m1152 -98 c17 -15 18 -40
18 -383 0 -330 -2 -369 -17 -381 -13 -12 -113 -14 -558 -14 -445 0 -545 2
-558 14 -15 12 -17 51 -17 379 0 326 2 367 17 384 15 17 46 18 556 18 489 0
542 -2 559 -17z"/>
<path d="M4231 2933 c-130 -3 -146 -6 -158 -23 -13 -18 -26 -20 -140 -20 -116
0 -125 1 -130 20 -5 20 -14 20 -344 20 l-339 0 0 -45 c0 -79 -45 -75 815 -75
860 0 815 -4 815 75 l0 45 -159 0 c-87 0 -171 1 -187 3 -16 2 -94 2 -173 0z"/>
<path d="M430 1556 l0 -856 203 0 c112 0 230 5 262 11 145 27 227 109 254 254
6 32 11 138 11 235 0 209 -12 264 -69 321 l-37 37 33 31 c64 61 68 80 68 341
0 220 -2 239 -23 291 -30 76 -80 131 -144 160 -51 23 -64 24 -305 27 l-253 3
0 -855z m410 574 c30 -16 40 -67 40 -210 0 -198 -11 -220 -114 -220 l-56 0 0
220 0 220 56 0 c30 0 64 -4 74 -10z m7 -734 l28 -24 0 -175 c0 -213 -2 -217
-102 -217 l-63 0 0 220 0 220 54 0 c44 0 61 -5 83 -24z"/>
<path d="M4267 2220 c-70 -12 -152 -55 -187 -98 -65 -79 -65 -79 -65 -677 l0
-540 26 -55 c33 -70 70 -106 139 -139 47 -22 72 -26 172 -29 98 -3 129 -1 185
17 85 25 142 72 174 143 l24 53 3 539 c3 629 4 618 -81 701 -36 35 -69 56
-107 68 -63 21 -213 30 -283 17z m168 -255 l25 -24 0 -491 c0 -477 -1 -491
-20 -510 -28 -28 -100 -28 -126 1 -18 20 -19 45 -22 485 -3 492 0 538 41 554
40 16 77 11 102 -15z"/>
<path d="M1360 1455 l0 -755 140 0 140 0 0 325 c0 179 4 325 8 325 5 0 51
-145 104 -322 l96 -323 151 -3 c92 -1 151 1 151 7 0 5 -58 159 -130 341 -71
183 -130 335 -130 340 0 4 18 15 41 25 54 25 106 87 124 149 21 69 21 350 0
429 -29 112 -96 176 -214 203 -37 9 -127 14 -268 14 l-213 0 0 -755z m384 505
c38 -14 48 -65 44 -214 -3 -120 -4 -129 -27 -147 -16 -13 -39 -19 -72 -19
l-49 0 0 195 0 195 39 0 c22 0 51 -4 65 -10z"/>
<path d="M2240 1455 l0 -755 330 0 330 0 0 120 0 120 -190 0 -190 0 0 195 0
195 163 2 162 3 3 123 3 122 -166 0 -165 0 0 195 0 195 190 0 190 0 0 120 0
120 -330 0 -330 0 0 -755z"/>
<path d="M3080 1455 l0 -755 135 0 135 0 2 353 3 352 89 -353 88 -352 139 0
139 0 0 755 0 756 -132 -3 -133 -3 -5 -347 -5 -347 -89 350 -89 349 -138 0
-139 0 0 -755z"/>
</g>
</svg>
