<?xml version="1.0" standalone="no"?>
<!DOCTYPE svg PUBLIC "-//W3C//DTD SVG 20010904//EN"
 "http://www.w3.org/TR/2001/REC-SVG-20010904/DTD/svg10.dtd">
<svg version="1.0" xmlns="http://www.w3.org/2000/svg"
 width="250.000000pt" height="70.000000pt" viewBox="0 0 250.000000 70.000000"
 preserveAspectRatio="xMidYMid meet">

<g transform="translate(0.000000,70.000000) scale(0.100000,-0.100000)"
fill="#000000" stroke="none">
<path d="M110 370 l0 -300 1145 0 1145 0 0 300 0 300 -1145 0 -1145 0 0 -300z
m2260 0 l0 -270 -1115 0 -1115 0 0 270 0 270 1115 0 1115 0 0 -270z"/>
<path d="M190 390 l0 -190 60 0 c96 0 100 8 100 190 0 182 -4 190 -100 190
l-60 0 0 -190z m95 0 c0 -111 -2 -125 -17 -128 -16 -3 -18 8 -18 128 0 120 2
131 18 128 15 -3 17 -17 17 -128z"/>
<path d="M900 390 l0 -190 60 0 c83 0 100 18 100 103 0 36 -5 68 -12 75 -9 9
-9 15 0 24 7 7 12 39 12 75 0 85 -17 103 -100 103 l-60 0 0 -190z m95 80 c0
-35 -4 -45 -17 -48 -15 -3 -18 4 -18 48 0 44 3 51 18 48 13 -3 17 -13 17 -48z
m0 -160 c0 -35 -4 -45 -17 -48 -15 -3 -18 4 -18 48 0 44 3 51 18 48 13 -3 17
-13 17 -48z"/>
<path d="M1735 515 c-24 -23 -25 -30 -25 -150 0 -120 1 -127 25 -150 30 -31
83 -33 116 -6 23 19 24 24 24 156 0 132 -1 137 -24 156 -33 27 -86 25 -116 -6z
m75 -149 c0 -62 -3 -116 -7 -119 -3 -4 -12 -2 -20 4 -17 15 -19 209 -1 227 22
22 28 0 28 -112z"/>
<path d="M400 365 l0 -165 70 0 c68 0 70 1 70 25 0 23 -4 25 -40 25 l-40 0 0
45 c0 45 0 45 35 45 31 0 35 3 35 25 0 22 -4 25 -35 25 -35 0 -35 0 -35 45 l0
45 40 0 c36 0 40 3 40 25 0 24 -2 25 -70 25 l-70 0 0 -165z"/>
<path d="M573 498 c3 -18 16 -93 28 -165 l23 -133 43 0 c24 0 43 2 43 5 0 3
11 71 25 151 14 80 25 152 25 160 0 9 -11 14 -30 14 -16 0 -30 -1 -30 -3 0
-17 -31 -231 -34 -234 -2 -2 -9 42 -16 99 -16 138 -16 138 -52 138 -29 0 -30
-2 -25 -32z"/>
<path d="M1110 365 l0 -165 30 0 30 0 1 68 1 67 21 -67 c20 -66 22 -68 54 -68
18 0 33 2 33 5 0 3 -11 33 -25 67 -29 71 -30 84 -10 92 19 7 21 136 3 154 -7
7 -39 12 -75 12 l-63 0 0 -165z m88 73 c-4 -59 -28 -63 -28 -4 0 35 4 46 16
46 12 0 14 -9 12 -42z"/>
<path d="M1310 365 l0 -165 70 0 c68 0 70 1 70 25 0 23 -4 25 -40 25 l-40 0 0
45 c0 45 0 45 35 45 31 0 35 3 35 25 0 22 -4 25 -35 25 -35 0 -35 0 -35 45 l0
45 40 0 c36 0 40 3 40 25 0 24 -2 25 -70 25 l-70 0 0 -165z"/>
<path d="M1510 365 l0 -165 30 0 30 0 1 68 1 67 17 -65 c16 -62 19 -65 49 -68
l32 -3 0 165 0 166 -30 0 -30 0 -1 -72 c-1 -78 -1 -79 -30 35 -9 32 -14 37
-39 37 l-30 0 0 -165z"/>
<path d="M1975 480 c-11 -19 -8 -211 4 -223 15 -15 287 -12 307 4 21 17 20
192 -2 213 -13 13 -42 16 -159 16 -84 0 -146 -4 -150 -10z m293 -112 l3 -98
-141 0 -140 0 0 93 c0 52 3 96 6 99 3 3 65 5 137 4 l132 -1 3 -97z"/>
<path d="M1933 207 c5 -17 389 -17 394 0 3 8 -50 11 -197 11 -149 0 -200 -3
-197 -11z"/>
</g>
</svg>
